{"accessors" : [{"bufferView" : 0, "byteOffset" : 0, "componentType" : 5123, "count" : 360, "type" : "SCALAR", "max" : [359], "min" : [0]}, {"bufferView" : 1, "byteOffset" : 0, "componentType" : 5126, "count" : 360, "type" : "VEC3", "max" : [-18.243200302124023, 6.372700214385986, 22.30590057373047], "min" : [-48.42789840698242, -0.005499999970197678, -8.827400207519531]}, {"bufferView" : 1, "byteOffset" : 12, "componentType" : 5126, "count" : 360, "type" : "VEC3", "max" : [1.0000044107437134, 1.0000044107437134, 0.9581765532493591], "min" : [-1.0000044107437134, -1.0000044107437134, -0.9982087016105652]}, {"bufferView" : 1, "byteOffset" : 24, "componentType" : 5126, "count" : 360, "type" : "VEC2", "max" : [19422048270942208, -0], "min" : [19422048270942208, -0]}, {"bufferView" : 0, "byteOffset" : 720, "componentType" : 5125, "count" : 95190, "type" : "SCALAR", "max" : [95189], "min" : [0]}, {"bufferView" : 2, "byteOffset" : 0, "componentType" : 5126, "count" : 95190, "type" : "VEC3", "max" : [-16.885000228881836, 32.28990173339844, 22.340299606323242], "min" : [-49.59600067138672, 6.102799892425537, -12.127900123596191]}, {"bufferView" : 2, "byteOffset" : 12, "componentType" : 5126, "count" : 95190, "type" : "VEC3", "max" : [1.0000044107437134, 1.0000044107437134, 1.0000044107437134], "min" : [-1.0000044107437134, -0.9999790191650391, -1.0000041723251343]}, {"bufferView" : 2, "byteOffset" : 24, "componentType" : 5126, "count" : 95190, "type" : "VEC2", "max" : [27593687408050176, 11.78689956665039], "min" : [-16.12969970703125, -10.52649974822998]}], "asset" : {"generator" : "Aspose.3D 20.9.1", "version" : "2.0"}, "buffers" : [{"uri" : "buffer.bin", "byteLength" : 3439092}], "bufferViews" : [{"buffer" : 0, "byteOffset" : 0, "byteLength" : 381480, "target" : 34963}, {"buffer" : 0, "byteOffset" : 381484, "byteLength" : 11520, "byteStride" : 32, "target" : 34962}, {"buffer" : 0, "byteOffset" : 393008, "byteLength" : 3046080, "byteStride" : 32, "target" : 34962}], "materials" : [{"pbrMetallicRoughness" : {"baseColorFactor" : [0.5879999995231628, 0.5879999995231628, 0.5879999995231628, 1], "metallicFactor" : 1, "roughnessFactor" : 0}, "emissiveFactor" : [0, 0, 0], "alphaMode" : "OPAQUE", "doubleSided" : true}, {"pbrMetallicRoughness" : {"baseColorFactor" : [0.250980406999588, 0.3764705955982208, 0.5490196347236633, 1], "metallicFactor" : 0, "roughnessFactor" : 0.9699476361274719}, "emissiveFactor" : [0, 0, 0], "alphaMode" : "OPAQUE", "doubleSided" : true}], "meshes" : [{"primitives" : [{"attributes" : {"POSITION" : 1, "NORMAL" : 2, "TEXCOORD_0" : 3}, "indices" : 0, "material" : 0, "mode" : 4}]}, {"primitives" : [{"attributes" : {"POSITION" : 5, "NORMAL" : 6, "TEXCOORD_0" : 7}, "indices" : 4, "material" : 1, "mode" : 4}]}], "nodes" : [{"mesh" : 0, "name" : "buffer-0-mesh-0_0"}, {"mesh" : 1, "name" : "buffer-0-mesh-0_1_1"}, {"children" : [0, 1], "name" : "node-0"}, {"children" : [2], "matrix" : [1, 0, 0, 0, 0, 1, 0, 0, 0, 0, 1, 0, 33.28457029911651, -18.16099693049609, -5.174576493178848, 1]}, {"children" : [3], "matrix" : [1, 0, 0, 0, 0, 1, 0, 0, 0, 0, 1, 0, 0, 18.16099693049609, 0, 1]}, {"children" : [4]}, {"children" : [5], "matrix" : [0.025, 0, 0, 0, 0, 0.025, 0, 0, 0, 0, 0.025, 0, 0, 0, 0, 1], "name" : "scene-0"}], "scene" : 0, "scenes" : [{"nodes" : [6]}]}